<svg xmlns="http://www.w3.org/2000/svg" width="23.983" height="14.39" viewBox="0 0 23.983 14.39"><defs><style>.a{fill:#1d90d9;}.b{fill:#f7f7f7;}</style></defs><g transform="translate(-2 -6)"><path class="a" d="M16.88,18.992h7.2v-2.4h-7.98A4.22,4.22,0,0,1,16.88,18.992ZM12.8,7a6.094,6.094,0,0,1,.487,2.4H24.075V7ZM11.58,13.616a11.388,11.388,0,0,1,1.481.579H24.075V11.8H12.79A5.921,5.921,0,0,1,11.58,13.616Z" transform="translate(1.908 0.199)"/><g transform="translate(5.598 6)"><path class="b" d="M8.6,6a3.6,3.6,0,1,0,3.6,3.6A3.6,3.6,0,0,0,8.6,6Z" transform="translate(-5 -6)"/></g><g transform="translate(2 15.593)"><path class="b" d="M16.39,18.8H2V17.6C2,15.714,5.264,14,9.2,14s7.2,1.714,7.2,3.6Z" transform="translate(-2 -14)"/></g></g></svg>