<svg xmlns="http://www.w3.org/2000/svg" width="19.983" height="19.983" viewBox="0 0 19.983 19.983"><defs><style>.a{fill:#1d90d9;}.b{fill:none;stroke:#f7f7f7;stroke-linecap:square;stroke-linejoin:round;stroke-miterlimit:10;stroke-width:2px;}</style></defs><g transform="translate(-2.017 -2)"><path class="a" d="M21.471,2.531a1.8,1.8,0,0,0-1.534-.513c-2.673.375-8.931,1.253-14.78,10.445l6.381,6.38c9.188-5.848,10.069-12.107,10.445-14.78A1.8,1.8,0,0,0,21.471,2.531ZM12.5,13A1.5,1.5,0,1,1,14,11.5,1.5,1.5,0,0,1,12.5,13Zm4-4A1.5,1.5,0,1,1,18,7.5,1.5,1.5,0,0,1,16.5,9Z"/><path class="b" d="M9.414,17.414C8.633,18.195,5,19,5,19s.8-3.633,1.586-4.414"/><path class="a" d="M6.375,14H3.316A1.3,1.3,0,0,1,2.4,11.785L4.7,9.392A1.281,1.281,0,0,1,5.618,9H8Zm4.932,7.983a1.309,1.309,0,0,1-.506-.1,1.29,1.29,0,0,1-.8-1.2V17.417L15,16v2.5a1.276,1.276,0,0,1-.417.944l-2.4,2.187A1.234,1.234,0,0,1,11.307,21.983Z"/></g></svg>