<svg xmlns="http://www.w3.org/2000/svg" width="42" height="42" viewBox="0 0 42 42"><defs><style>.a{fill:#fdbe41;}</style></defs><g transform="translate(-3 -3)"><path class="a" d="M33.333,3H14.667A11.668,11.668,0,0,0,3,14.667V33.333A11.668,11.668,0,0,0,14.667,45H33.333A11.668,11.668,0,0,0,45,33.333V14.667A11.668,11.668,0,0,0,33.333,3ZM24,35.667A11.667,11.667,0,1,1,35.667,24,11.668,11.668,0,0,1,24,35.667ZM38,12.333A2.333,2.333,0,1,1,40.333,10,2.334,2.334,0,0,1,38,12.333Z"/><path class="a" d="M16,9a7,7,0,1,0,7,7A7,7,0,0,0,16,9Z" transform="translate(8 8)"/></g></svg>