<svg xmlns="http://www.w3.org/2000/svg" width="29.907" height="28.875" viewBox="0 0 29.907 28.875"><defs><style>.a{fill:none;stroke:#f7f7f7;stroke-linecap:round;stroke-linejoin:round;stroke-miterlimit:10;stroke-width:1.75px;}.b{fill:#1d90d9;}</style></defs><g transform="translate(-0.046)"><path class="a" d="M15,2c-2.761,0-5,5.82-5,13s2.239,13,5,13,5-5.82,5-13S17.761,2,15,2Z"/><path class="a" d="M15,2c-2.761,0-5,5.82-5,13s2.239,13,5,13,5-5.82,5-13S17.761,2,15,2Z" transform="translate(-5.49 20.49) rotate(-60)"/><path class="a" d="M15,10C7.82,10,2,12.239,2,15s5.82,5,13,5,13-2.239,13-5S22.18,10,15,10Z" transform="translate(-5.49 9.51) rotate(-30)"/><path class="b" d="M4.167,18.333A2.167,2.167,0,1,0,6.333,20.5,2.167,2.167,0,0,0,4.167,18.333Zm21.667,4.333A2.167,2.167,0,1,0,28,24.833,2.167,2.167,0,0,0,25.833,22.667ZM18.25,1a2.167,2.167,0,1,0,2.167,2.167A2.167,2.167,0,0,0,18.25,1Z" transform="translate(-1 -1)"/></g></svg>