<svg xmlns="http://www.w3.org/2000/svg" width="42" height="42" viewBox="0 0 42 42"><defs><style>.a{fill:#fdbe41;}</style></defs><path class="a" d="M40.333,3H7.667A4.665,4.665,0,0,0,3,7.667V40.333A4.665,4.665,0,0,0,7.667,45H40.333A4.665,4.665,0,0,0,45,40.333V7.667A4.665,4.665,0,0,0,40.333,3Zm-4.55,15.2V19c0,7.6-5.8,16.4-16.4,16.4a16.8,16.8,0,0,1-8.8-2.6h1.4a12.936,12.936,0,0,0,7.2-2.4,5.832,5.832,0,0,1-5.4-4,8.738,8.738,0,0,1,1,.2,4.393,4.393,0,0,0,1.6-.2,5.779,5.779,0,0,1-4.6-5.6,9.979,9.979,0,0,0,2.6.8,6.553,6.553,0,0,1-2.6-5,4.593,4.593,0,0,1,.8-2.8,16.234,16.234,0,0,0,11.8,6c0-.4-.2-.8-.2-1.4a5.805,5.805,0,0,1,5.8-5.8,5.449,5.449,0,0,1,4.2,1.8,9.709,9.709,0,0,0,3.6-1.4,5.846,5.846,0,0,1-2.6,3.2,10.94,10.94,0,0,0,3.4-1A13.506,13.506,0,0,1,35.783,18.2Z" transform="translate(-3 -3)"/></svg>