<svg xmlns="http://www.w3.org/2000/svg" width="26.446" height="25.299" viewBox="0 0 26.446 25.299"><defs><style>.a{fill:#c6e3f5;opacity:0.602;}.b{fill:#daebf7;}.c{fill:#1d90d9;}</style></defs><path class="a" d="M11.325,27.244H6.406A1.41,1.41,0,0,1,5,25.839V17.406A1.41,1.41,0,0,1,6.406,16h4.919Z" transform="translate(-5 -8.972)"/><path class="b" d="M22.433,31.3,14,24.272V13.028L22.433,6Z" transform="translate(-7.765 -6)"/><path class="c" d="M31.633,22.267a4.841,4.841,0,0,1-2.228,4.1l-1-1a3.53,3.53,0,0,0,0-6.184l1-1A4.841,4.841,0,0,1,31.633,22.267Z" transform="translate(-12.137 -9.617)"/><path class="c" d="M36.217,21.2a8.335,8.335,0,0,1-3.24,6.6L32,26.822a7.028,7.028,0,0,0,0-11.244l1-1A8.4,8.4,0,0,1,36.217,21.2Z" transform="translate(-13.284 -8.55)"/><path class="c" d="M40.786,20.145a11.947,11.947,0,0,1-4.238,9.115l-1-1a10.516,10.516,0,0,0,0-16.234l1-1A11.947,11.947,0,0,1,40.786,20.145Z" transform="translate(-14.34 -7.495)"/></svg>