<svg xmlns="http://www.w3.org/2000/svg" width="19.896" height="20.8" viewBox="0 0 19.896 20.8"><defs><style>.a{fill:#71c2fd;}</style></defs><g transform="translate(-4 -4.2)"><path class="a" d="M13.948,6.487a4.979,4.979,0,0,1,4.974,4.974v8.49l.214.214H8.76l.214-.214v-8.49a4.979,4.979,0,0,1,4.974-4.974m0-2.487h0a7.46,7.46,0,0,0-7.461,7.461v7.461L4,21.409v1.243H23.9V21.409l-2.487-2.487V11.461A7.46,7.46,0,0,0,13.948,4Z" transform="translate(0 0.2)"/><path class="a" d="M11.7,18a1.7,1.7,0,1,0,1.7,1.7A1.7,1.7,0,0,0,11.7,18Z" transform="translate(1.913 3.609)"/></g></svg>