<svg xmlns="http://www.w3.org/2000/svg" width="14.711" height="14.711" viewBox="0 0 14.711 14.711"><defs><style>.a{fill:#1d90d9;}.b{fill:none;stroke:#f7f7f7;stroke-linecap:square;stroke-linejoin:round;stroke-miterlimit:10;stroke-width:2px;}</style></defs><g transform="translate(-2.017 -2)"><path class="a" d="M17.167,2.391a1.328,1.328,0,0,0-1.129-.378C14.07,2.289,9.463,2.936,5.157,9.7l4.7,4.7c6.764-4.305,7.412-8.913,7.689-10.881A1.324,1.324,0,0,0,17.167,2.391Zm-6.6,7.707a1.1,1.1,0,1,1,1.1-1.1A1.1,1.1,0,0,1,10.563,10.1Zm2.945-2.945a1.1,1.1,0,1,1,1.1-1.1A1.1,1.1,0,0,1,13.507,7.153Z" transform="translate(-0.828)"/><path class="b" d="M8.249,16.668C7.674,17.243,5,17.835,5,17.835s.593-2.674,1.168-3.249" transform="translate(-0.787 -3.321)"/><path class="a" d="M5.225,12.681H2.973A.955.955,0,0,1,2.3,11.05L3.99,9.289A.943.943,0,0,1,4.668,9H6.422Zm3.631,5.877a.964.964,0,0,1-.372-.074.95.95,0,0,1-.59-.882V15.2l3.681-1.043V16a.939.939,0,0,1-.307.695L9.5,18.3A.908.908,0,0,1,8.856,18.558Z" transform="translate(0 -1.847)"/></g></svg>