<svg xmlns="http://www.w3.org/2000/svg" width="41.885" height="49.5" viewBox="0 0 41.885 49.5"><defs><style>.a{fill:#71c2fd;}</style></defs><path class="a" d="M24.942,1h0a1.9,1.9,0,0,0-1.9,1.9v7.615h3.808V2.9A1.9,1.9,0,0,0,24.942,1Zm17.135,9.519H26.846V34.481l4.366-4.366A1.9,1.9,0,1,1,33.9,32.808l-7.615,7.615a1.9,1.9,0,0,1-2.692,0l-7.615-7.615a1.9,1.9,0,0,1,2.692-2.692l4.366,4.366V10.519H7.808A3.807,3.807,0,0,0,4,14.327V46.692A3.807,3.807,0,0,0,7.808,50.5H42.077a3.807,3.807,0,0,0,3.808-3.808V14.327A3.807,3.807,0,0,0,42.077,10.519Z" transform="translate(-4 -1)"/></svg>