<svg xmlns="http://www.w3.org/2000/svg" width="21.106" height="23.674" viewBox="0 0 21.106 23.674"><defs><style>.a{fill:#7d8597;stroke:#fff;stroke-width:0.5px;}.b{fill:#71c2fd;}</style></defs><g transform="translate(-2.75 -1.75)"><path class="a" d="M7.476,2A2.317,2.317,0,1,0,9.793,4.317,2.317,2.317,0,0,0,7.476,2ZM8.635,12.428h2.317V25.174H8.635ZM4,17.063H6.317v8.111H4Z" transform="translate(0.159)"/><path class="a" d="M5.317,7A2.317,2.317,0,0,0,3,9.317v8.111H9.952V15.111H5.317V9.317H15.746V7Z" transform="translate(0 0.793)"/><path class="b" d="M12,11.635h2.317v2.317H12Zm4.635,0h5.793v2.317H16.635ZM12,16.27h2.317v2.317H12Zm4.635,0h5.793v2.317H16.635ZM12,20.9h2.317v2.317H12Zm4.635,0h5.793v2.317H16.635Zm0-13.9h5.793V9.317H16.635Z" transform="translate(1.428 0.793)"/></g></svg>