<svg xmlns="http://www.w3.org/2000/svg" width="33.391" height="31.292" viewBox="0 0 33.391 31.292"><defs><style>.a{fill:none;stroke:#7d8597;stroke-linecap:round;stroke-linejoin:round;stroke-miterlimit:10;stroke-width:1.75px;}.b{fill:#71c2fd;}</style></defs><g transform="translate(-0.046 -1)"><path class="a" d="M15.633,2C12.522,2,10,8.557,10,16.646s2.522,14.646,5.633,14.646,5.633-6.557,5.633-14.646S18.744,2,15.633,2Z" transform="translate(1.109 0.127)"/><path class="a" d="M5.633,0C2.522,0,0,6.557,0,14.646S2.522,29.291,5.633,29.291s5.633-6.557,5.633-14.646S8.744,0,5.633,0Z" transform="translate(1.242 14.328) rotate(-60)"/><path class="a" d="M14.646,0C6.557,0,0,2.522,0,5.633s6.557,5.633,14.646,5.633S29.291,8.744,29.291,5.633,22.734,0,14.646,0Z" transform="translate(1.242 19.217) rotate(-30)"/><path class="b" d="M4.253,19.025a2.253,2.253,0,1,0,2.253,2.253A2.253,2.253,0,0,0,4.253,19.025Zm22.532,4.506a2.253,2.253,0,1,0,2.253,2.253A2.253,2.253,0,0,0,26.785,23.532ZM18.9,1a2.253,2.253,0,1,0,2.253,2.253A2.253,2.253,0,0,0,18.9,1Z" transform="translate(0.096 0)"/></g></svg>