<svg xmlns="http://www.w3.org/2000/svg" width="17.46" height="24.5" viewBox="0 0 17.46 24.5"><defs><style>.a,.b{fill:#71c2fd;stroke:#fff;}.a{stroke-width:0.5px;}.c{fill:none;stroke:#7d8597;stroke-miterlimit:10;stroke-width:2px;}</style></defs><g transform="translate(-7.64 -1.75)"><path class="a" d="M19.8,2a2.4,2.4,0,1,0,2.4,2.4A2.4,2.4,0,0,0,19.8,2ZM21,17.6h2.4V26H21Zm-4.8,0h2.4V26H16.2Z"/><path class="b" d="M20.2,9.4v6H15.4v-6M20.2,7H15.4A2.4,2.4,0,0,0,13,9.4v8.4h9.6V9.4A2.4,2.4,0,0,0,20.2,7Z" transform="translate(2 1)"/><path class="c" d="M13.64,19.96V15.64m4.32,4.32V13.48" transform="translate(-5 6.02)"/></g></svg>