<svg xmlns="http://www.w3.org/2000/svg" width="35.222" height="29" viewBox="0 0 35.222 29"><defs><style>.a{fill:#f4c150;}.a,.b{stroke:#1d90d9;}.b{fill:#fff;}</style></defs><g transform="translate(-0.5 -2.5)"><path class="a" d="M2,3V23.222a3.11,3.11,0,0,0,3.111,3.111H16V31h3.111V26.333H30a3.11,3.11,0,0,0,3.111-3.111V3ZM29.222,23.222H5.889a.778.778,0,0,1-.778-.778V6.111H30V22.444A.778.778,0,0,1,29.222,23.222Z" transform="translate(0.556 0)"/><path class="b" d="M13.444,9.222a4.667,4.667,0,0,0,0,9.333,4.714,4.714,0,0,0,4.667-4.667H13.444Zm7.778,0h6.222v3.111H21.222Zm0,6.222h6.222v3.111H21.222ZM1,3H35.222V6.111H1Z" transform="translate(0 0)"/></g></svg>