<svg xmlns="http://www.w3.org/2000/svg" width="25.915" height="19.241" viewBox="0 0 25.915 19.241"><defs><style>.a{fill:#fff;}</style></defs><path class="a" d="M28.194,12.307a3.418,3.418,0,0,0-2.706-2.586A53.47,53.47,0,0,0,15.867,9a54.236,54.236,0,0,0-9.681.722,3.338,3.338,0,0,0-2.706,2.586A39.627,39.627,0,0,0,3,18.62a32.711,32.711,0,0,0,.541,6.313,3.418,3.418,0,0,0,2.706,2.586,55.252,55.252,0,0,0,9.681.722,55.252,55.252,0,0,0,9.681-.722,3.338,3.338,0,0,0,2.706-2.586,45.808,45.808,0,0,0,.6-6.313A41.869,41.869,0,0,0,28.194,12.307ZM12.62,22.829V14.412l7.336,4.209Z" transform="translate(-3 -9)"/></svg>