<svg xmlns="http://www.w3.org/2000/svg" width="26" height="24.75" viewBox="0 0 26 24.75"><defs><style>.a{fill:#71c2fd;}.b{fill:none;stroke:#7d8597;stroke-miterlimit:10;stroke-width:1.5px;}</style></defs><g transform="translate(-3 -4.25)"><path class="a" d="M16,25a2,2,0,1,0,2,2A2,2,0,0,0,16,25ZM5,22a2,2,0,1,0,2,2A2,2,0,0,0,5,22Zm22,0a2,2,0,1,0,2,2A2,2,0,0,0,27,22Z"/><path class="a" d="M7.877,21,4.462,23.134l1.06,1.7L11.651,21ZM15,21h2v5.208H15Zm5.349,0,6.129,3.83,1.06-1.7L24.123,21Z"/><path class="b" d="M16,5a4,4,0,1,0,4,4A4,4,0,0,0,16,5ZM10,19a6,6,0,0,1,12,0"/></g></svg>