<svg xmlns="http://www.w3.org/2000/svg" width="40.152" height="25.181" viewBox="0 0 40.152 25.181"><defs><style>.a{fill:#f4c150;stroke:#fff;}</style></defs><g transform="translate(-20.778 4.176)"><g transform="translate(0 0)"><path class="a" d="M28.141,21.978h1.18v3.935c0,.59.787.984,1.18.59l4.525-4.525H60.211a3.527,3.527,0,0,0,3.541-3.541V6.041A3.527,3.527,0,0,0,60.211,2.5H28.141A3.527,3.527,0,0,0,24.6,6.041V18.436A3.527,3.527,0,0,0,28.141,21.978ZM51.947,9.583A2.558,2.558,0,1,1,49.39,12.14,2.372,2.372,0,0,1,51.947,9.583Zm-7.673,0a2.558,2.558,0,1,1-2.558,2.558A2.372,2.372,0,0,1,44.274,9.583Zm-7.673,0a2.558,2.558,0,1,1-2.558,2.558A2.372,2.372,0,0,1,36.6,9.583Z" transform="translate(-3.322 -6.176)"/></g></g></svg>