<svg xmlns="http://www.w3.org/2000/svg" width="94.02" height="94.049" viewBox="0 0 94.02 94.049"><defs><style>.a{fill:#1d90d9;}</style></defs><path class="a" d="M129.2,96H110.1A14.144,14.144,0,0,0,96,110.1v37.608a14.144,14.144,0,0,0,14.1,14.1h11.37a2.364,2.364,0,0,1,2.35,2.527,35.838,35.838,0,0,1-9.2,21.771,2.352,2.352,0,0,0,1.733,3.937h11.723a2.283,2.283,0,0,0,1.851-.911c2.174-2.821,8.374-12.223,8.374-27.589V105.138A8.906,8.906,0,0,0,129.2,96Zm51.711,0h-19.1a14.144,14.144,0,0,0-14.1,14.1v37.608a14.144,14.144,0,0,0,14.1,14.1h11.37a2.364,2.364,0,0,1,2.35,2.527,35.838,35.838,0,0,1-9.2,21.771,2.352,2.352,0,0,0,1.733,3.937h11.723a2.282,2.282,0,0,0,1.851-.911c2.174-2.821,8.374-12.223,8.374-27.589V105.138A8.906,8.906,0,0,0,180.911,96Z" transform="translate(190.02 190.049) rotate(180)"/></svg>