<svg xmlns="http://www.w3.org/2000/svg" width="65.646" height="66.646" viewBox="0 0 65.646 66.646"><defs><style>.a,.f{fill:none;}.a{stroke:#7d8597;stroke-width:2px;}.b{fill:#7d8597;}.c{fill:#71c2fd;}.d{fill:#f4c150;}.e{stroke:none;}</style></defs><g transform="translate(-5.948 -4.864)"><g class="a" transform="translate(5.948 4.864)"><rect class="e" width="53" height="58" rx="4"/><rect class="f" x="1" y="1" width="51" height="56" rx="3"/></g><path class="b" d="M13,19.247H47.359v3.124H13Zm0,6.247H41.112v3.124H13ZM13,13H44.236v3.124H13Zm0,18.741H47.359v3.124H13Zm0,6.247v3.124H35.554l-.786-3.124Z" transform="translate(3.932 3.848)"/><path class="c" d="M46.478,50.882l4.4-4.4a1.716,1.716,0,0,0,0-2.429l-2.072-2.074-6.833,6.836,2.074,2.071a1.718,1.718,0,0,0,2.429,0" transform="translate(20.21 20.125)"/><path class="d" d="M0,0H9.664V20.573H0Z" transform="matrix(0.707, -0.707, 0.707, 0.707, 44.217, 50.97)"/><path class="c" d="M0,0H9.666V4.832H0Z" transform="translate(58.766 65.521) rotate(-45.025)"/><path class="d" d="M38.133,31.3,29,29l2.3,9.133Z" transform="translate(12.921 12.836)"/><path class="d" d="M33.617,30.162,29,29l1.162,4.617Z" transform="translate(12.921 12.836)"/></g></svg>