<svg xmlns="http://www.w3.org/2000/svg" width="18" height="20.5" viewBox="0 0 18 20.5"><defs><style>.a,.b{fill:none;}.b{stroke:#71c2fd;stroke-linejoin:round;stroke-miterlimit:10;stroke-width:2px;}.c{fill:#71c2fd;}.d,.e{stroke:none;}.e{fill:#7d8597;}</style></defs><g transform="translate(-3 -2)"><g class="a"><path class="d" d="M5,11V21H19V11Zm9,4H10V14h4Z"/><path class="e" d="M 5 11 L 5 21 L 19 21 L 19 11 L 5 11 M 14 15 L 10 15 L 10 14 L 14 14 L 14 15 M 3.5 9.5 L 5 9.5 L 19 9.5 L 20.5 9.5 L 20.5 11 L 20.5 21 L 20.5 22.5 L 19 22.5 L 5 22.5 L 3.5 22.5 L 3.5 21 L 3.5 11 L 3.5 9.5 Z"/></g><path class="b" d="M12,8V4"/><path class="c" d="M12,2a2,2,0,1,0,2,2A2,2,0,0,0,12,2Zm7,0a2,2,0,1,0,2,2A2,2,0,0,0,19,2Z"/><path class="c" d="M17.08,8l2.7-3.375-1.562-1.25L14.52,8ZM5,2A2,2,0,1,0,7,4,2,2,0,0,0,5,2Z"/><path class="c" d="M6.92,8l-2.7-3.375,1.562-1.25L9.48,8Z"/></g></svg>