<svg xmlns="http://www.w3.org/2000/svg" width="47.99" height="54.951" viewBox="0 0 47.99 54.951"><defs><style>.a{fill:#7d8597;}.b{fill:#71c2fd;}.c{fill:#fdbe41;}</style></defs><g transform="translate(-12.6 -5.9)"><path class="a" d="M60.24,48.277c-.419-1.025-1.63-2.654-4.657-1.77h-.047l-5.449,1.816a1.4,1.4,0,0,0,.885,2.654l5.355-1.816c1.118-.326,1.211-.093,1.3.186.093.233-.279.512-.326.512-6.194,3.26-13.458,7.032-15.368,7.824-2.422.978-6.007-.047-6.007-.047l-9.64-2.98V44.878h1.49c1.77,0,6.752.559,8.569,3.167a1.456,1.456,0,0,0,1.164.605h6.8a1.174,1.174,0,0,1,1.211.978v.326c0,.047,0,.093-.047.093,0,.047,0,.047-.047.093a1.145,1.145,0,0,1-1.025.652H34.58a1.4,1.4,0,0,0,0,2.794h9.873a3.9,3.9,0,0,0,3.26-1.77l.047-.047c.047-.047.047-.093.093-.14a.163.163,0,0,1,.047-.093,2.271,2.271,0,0,0,.14-.326v-.047a.673.673,0,0,0,.093-.326v-.093c.047-.093.047-.186.093-.279v-.093c0-.093.047-.186.047-.279V50a3.5,3.5,0,0,0,0-.7,3.962,3.962,0,0,0-4-3.539H38.213c-3.26-3.725-10.105-3.772-10.385-3.772H23.311a2.868,2.868,0,0,0-2.654-1.77H14a1.4,1.4,0,1,0,0,2.794h6.659a.163.163,0,0,1,.093.047V55.216H14a1.4,1.4,0,1,0,0,2.794h6.752a2.839,2.839,0,0,0,2.468-1.444l11.922,3.725a16.589,16.589,0,0,0,4.238.559,9.766,9.766,0,0,0,3.632-.605c2.468-.978,11.735-5.868,15.6-7.917A3.185,3.185,0,0,0,60.24,48.277Z"/><path class="b" d="M67.548,55.476a1.372,1.372,0,0,0,1.4-1.4V38.991a11.48,11.48,0,0,1,3.4-8.2,1.35,1.35,0,0,0,0-1.956,1.391,1.391,0,0,0-1.956,0,14.332,14.332,0,0,0-4.191,10.2V54.172A1.313,1.313,0,0,0,67.548,55.476Z" transform="translate(-28.637 -12.042)"/><path class="c" d="M31.833,33.795a2.841,2.841,0,1,0,2.841,2.841,2.841,2.841,0,0,0-2.841-2.841Zm5.216-22.632a1.909,1.909,0,1,0,1.909,1.909A1.909,1.909,0,0,0,37.048,11.162Zm8.289,8.755a1.4,1.4,0,1,0,1.4,1.4,1.4,1.4,0,0,0-1.4-1.4ZM61.59,19.5a1.4,1.4,0,0,0-1.4-1.4A16.535,16.535,0,0,0,43.661,34.633v3.912a1.372,1.372,0,0,0,1.4,1.4h0A16.535,16.535,0,0,0,61.59,23.41ZM46.455,37.1V34.633A13.737,13.737,0,0,1,58.8,20.988C58.8,20.942,53.394,36.4,46.455,37.1Zm6.52-28.267V7.3a1.372,1.372,0,0,0-1.4-1.4,7.473,7.473,0,0,0-7.451,7.451v1.583a1.372,1.372,0,0,0,1.4,1.4h0A7.513,7.513,0,0,0,52.975,8.834ZM46.921,13.3a4.612,4.612,0,0,1,3.26-4.377A4.656,4.656,0,0,1,46.921,13.3ZM33.23,29.557a1.372,1.372,0,0,0,1.4-1.4V25.412A11.964,11.964,0,0,0,22.659,13.444a1.372,1.372,0,0,0-1.4,1.4v2.748A11.964,11.964,0,0,0,33.23,29.557ZM24.056,17.589V16.331c4.424.652,7.777,10.338,7.777,10.338A9.255,9.255,0,0,1,24.056,17.589Z" transform="translate(-1)"/></g></svg>