<svg xmlns="http://www.w3.org/2000/svg" width="40.194" height="52.25" viewBox="0 0 40.194 52.25"><defs><style>.a{fill:none;stroke:#7d8597;stroke-width:2px;}.b{fill:#f4c150;}.c{fill:#71c2fd;}.d{fill:#f8f9fa;}</style></defs><g transform="translate(1)"><path class="a" d="M13.591,7A1.454,1.454,0,0,0,12,8.25v40a1.454,1.454,0,0,0,1.591,1.25H48.6a1.454,1.454,0,0,0,1.591-1.25v-40A1.454,1.454,0,0,0,48.6,7Z" transform="translate(-12 1.75)"/><path class="b" d="M32.875,18.725l-9.859,9.86-3.891-4.016L16,27.694l7.141,7.016L36,21.85Z" transform="translate(-7.5 4.681)"/><path class="c" d="M28.5,3.75a3.75,3.75,0,0,0-7.5,0V10a1.25,1.25,0,0,0,1.25,1.25h5A1.25,1.25,0,0,0,28.5,10Z" transform="translate(-6.5)"/><path class="d" d="M24.25,2A1.25,1.25,0,1,0,25.5,3.25,1.25,1.25,0,0,0,24.25,2Z" transform="translate(-5.5 0.5)"/></g></svg>