<svg xmlns="http://www.w3.org/2000/svg" width="53.703" height="53.702" viewBox="0 0 53.703 53.702"><defs><style>.a{fill:none;stroke:#7d8597;stroke-linejoin:round;stroke-width:2px;}.b{fill:#7d8597;}.c{fill:#71c2fd;}.d{fill:#f4c150;}</style></defs><g transform="translate(1.414 1.414)"><path class="a" d="M0,0H16.188V55.759H0Z" transform="matrix(0.707, -0.707, 0.707, 0.707, 0, 11.447)"/><path class="b" d="M0,0H2.544V8.1H0Z" transform="matrix(-0.707, -0.707, 0.707, -0.707, 15.488, 15.487)"/><path class="b" d="M0,0H2.545V4.5H0Z" transform="matrix(0.707, 0.707, -0.707, 0.707, 37.295, 25.847)"/><path class="b" d="M0,0H2.544V4.5H0Z" transform="matrix(0.707, 0.707, -0.707, 0.707, 15.635, 4.187)"/><path class="b" d="M0,0H2.544V4.5H0Z" transform="matrix(0.707, 0.707, -0.707, 0.707, 44.964, 33.516)"/><path class="b" d="M0,0H2.544V4.5H0Z" transform="matrix(0.707, 0.707, -0.707, 0.707, 23.266, 11.819)"/><path class="b" d="M0,0H8.1V2.544H0Z" transform="matrix(0.707, -0.707, 0.707, 0.707, 35.387, 35.389)"/><path class="c" d="M44.59,10.173,39.947,5.53a1.813,1.813,0,0,0-2.563,0L35.2,7.718l7.205,7.2,2.186-2.185a1.815,1.815,0,0,0,0-2.564" transform="translate(4.482 -3.729)"/><path class="b" d="M0,0H45.8V10.19H0Z" transform="matrix(0.707, -0.707, 0.707, 0.707, 3.697, 39.971)"/><path class="c" d="M0,0H5.1V10.19H0Z" transform="matrix(-0.707, 0.707, -0.707, -0.707, 46.88, 11.192)"/><path class="d" d="M7.423,35.429,5,45.058l9.629-2.424Z" transform="translate(-3.728 4.544)"/><path class="d" d="M6.227,39.172,5,44.041l4.867-1.227Z" transform="translate(-3.728 5.561)"/></g></svg>