<svg xmlns="http://www.w3.org/2000/svg" width="69.782" height="72.146" viewBox="0 0 69.782 72.146"><defs><style>.a{fill:#71c2fd;}.a,.c{stroke:#fff;}.b{fill:#f4c150;}.c{fill:#7d8597;}</style></defs><g transform="translate(-3.5 -2)"><path class="a" d="M36.86,22.909a4.642,4.642,0,0,1-3.37-1.46L21.727,8.9,18.24,14.384a1.543,1.543,0,0,0,.14,1.841L30.5,30.082a1.547,1.547,0,0,0,1.159.525H53.411a1.539,1.539,0,0,0,1.54-1.54V22.909ZM59.569,18.29h3.079V39.844H59.569ZM64.188,46c0,1.7-3.079,6.158-3.079,6.158S58.029,47.7,58.029,46a3.079,3.079,0,1,1,6.158,0Z" transform="translate(7.554 3.725)"/><path class="b" d="M64.188,23.554H36.86a1.537,1.537,0,0,1-1.122-.487L18.417,4.593A1.54,1.54,0,0,1,19.539,2H45.712a1.533,1.533,0,0,1,1.088.451L65.276,20.926a1.539,1.539,0,0,1-1.089,2.628Z" transform="translate(7.555)"/><path class="c" d="M60.965,31.475h-1.54V48.411H7.079V17.058a.972.972,0,0,1,.962-.979H23.5A4.593,4.593,0,0,1,22.5,13H8.041A4.055,4.055,0,0,0,4,17.058V53.59a4.055,4.055,0,0,0,4.041,4.058H58.463A4.055,4.055,0,0,0,62.5,53.59V31.475ZM33.252,54.569a1.54,1.54,0,1,1,1.54-1.54A1.54,1.54,0,0,1,33.252,54.569Zm10.777,9.238A4.677,4.677,0,0,1,39.7,60.727H26.8a4.677,4.677,0,0,1-4.325,3.079,1.54,1.54,0,0,0,0,3.079H44.029a1.54,1.54,0,0,0,0-3.079Z" transform="translate(0 6.761)"/></g></svg>